<svg width="24" height="25" viewBox="0 0 24 25" fill="none" xmlns="http://www.w3.org/2000/svg">
<path fill-rule="evenodd" clip-rule="evenodd" d="M16 3.42676H8C5.23858 3.42676 3 5.66534 3 8.42676V16.4268C3 19.1882 5.23858 21.4268 8 21.4268H16C18.7614 21.4268 21 19.1882 21 16.4268V8.42676C21 5.66534 18.7614 3.42676 16 3.42676ZM19.25 16.4268C19.2445 18.2194 17.7926 19.6713 16 19.6768H8C6.20735 19.6713 4.75549 18.2194 4.75 16.4268V8.42676C4.75549 6.63411 6.20735 5.18225 8 5.17676H16C17.7926 5.18225 19.2445 6.63411 19.25 8.42676V16.4268ZM16.75 8.67676C17.3023 8.67676 17.75 8.22904 17.75 7.67676C17.75 7.12448 17.3023 6.67676 16.75 6.67676C16.1977 6.67676 15.75 7.12448 15.75 7.67676C15.75 8.22904 16.1977 8.67676 16.75 8.67676ZM12 7.92676C9.51472 7.92676 7.5 9.94148 7.5 12.4268C7.5 14.9121 9.51472 16.9268 12 16.9268C14.4853 16.9268 16.5 14.9121 16.5 12.4268C16.5027 11.2325 16.0294 10.0863 15.1849 9.24184C14.3404 8.39735 13.1943 7.9241 12 7.92676ZM9.25 12.4268C9.25 13.9456 10.4812 15.1768 12 15.1768C13.5188 15.1768 14.75 13.9456 14.75 12.4268C14.75 10.908 13.5188 9.67676 12 9.67676C10.4812 9.67676 9.25 10.908 9.25 12.4268Z" fill="#FAFAFA"/>
</svg>
