<svg width="24" height="25" viewBox="0 0 24 25" fill="none" xmlns="http://www.w3.org/2000/svg">
<path fill-rule="evenodd" clip-rule="evenodd" d="M4.5 3.42676C3.67157 3.42676 3 4.09833 3 4.92676V19.9268C3 20.7552 3.67157 21.4268 4.5 21.4268H19.5C20.3284 21.4268 21 20.7552 21 19.9268V4.92676C21 4.09833 20.3284 3.42676 19.5 3.42676H4.5ZM8.52076 7.42948C8.52639 8.38573 7.81061 8.97495 6.96123 8.97073C6.16107 8.96651 5.46357 8.32948 5.46779 7.43089C5.47201 6.58573 6.13998 5.90651 7.00764 5.9262C7.88795 5.94589 8.52639 6.59136 8.52076 7.42948ZM12.2797 10.1885H9.75971H9.7583V18.7484H12.4217V18.5487C12.4217 18.1688 12.4214 17.7888 12.4211 17.4087C12.4203 16.3949 12.4194 15.38 12.4246 14.3665C12.426 14.1204 12.4372 13.8645 12.5005 13.6296C12.7381 12.7521 13.5271 12.1854 14.4074 12.3247C14.9727 12.4132 15.3467 12.7409 15.5042 13.2739C15.6013 13.6071 15.6449 13.9657 15.6491 14.3131C15.6605 15.3607 15.6589 16.4083 15.6573 17.456C15.6567 17.8258 15.6561 18.1958 15.6561 18.5656V18.747H18.328V18.5417C18.328 18.0897 18.3278 17.6378 18.3275 17.1859C18.327 16.0564 18.3264 14.9269 18.3294 13.797C18.3308 13.2865 18.276 12.7831 18.1508 12.2895C17.9638 11.5554 17.5771 10.9479 16.9485 10.5092C16.5027 10.1969 16.0133 9.99586 15.4663 9.97336C15.404 9.97077 15.3412 9.96738 15.2781 9.96397C14.9984 9.94885 14.7141 9.93349 14.4467 9.98742C13.6817 10.1407 13.0096 10.4909 12.5019 11.1082C12.4429 11.179 12.3852 11.2509 12.2991 11.3582L12.2797 11.3825V10.1885ZM5.68164 18.7512H8.33242V10.1941H5.68164V18.7512Z" fill="#FAFAFA"/>
</svg>
