<svg width="24" height="25" viewBox="0 0 24 25" fill="none" xmlns="http://www.w3.org/2000/svg">
<path d="M21.5931 7.38709C21.4792 6.96449 21.2566 6.57909 20.9475 6.26926C20.6383 5.95942 20.2534 5.73595 19.8311 5.62109C18.2651 5.19109 12.0001 5.18409 12.0001 5.18409C12.0001 5.18409 5.73609 5.17709 4.16909 5.58809C3.74701 5.70824 3.36291 5.93487 3.05365 6.24622C2.7444 6.55758 2.52037 6.94321 2.40309 7.36609C1.99009 8.93209 1.98609 12.1801 1.98609 12.1801C1.98609 12.1801 1.98209 15.4441 2.39209 16.9941C2.62209 17.8511 3.29709 18.5281 4.15509 18.7591C5.73709 19.1891 11.9851 19.1961 11.9851 19.1961C11.9851 19.1961 18.2501 19.2031 19.8161 18.7931C20.2386 18.6784 20.6238 18.4555 20.9337 18.1463C21.2436 17.8371 21.4675 17.4523 21.5831 17.0301C21.9971 15.4651 22.0001 12.2181 22.0001 12.2181C22.0001 12.2181 22.0201 8.95309 21.5931 7.38709ZM9.99609 15.1891L10.0011 9.18909L15.2081 12.1941L9.99609 15.1891Z" fill="#FAFAFA"/>
</svg>
